<svg width="39" height="36" viewBox="0 0 39 36" fill="none" xmlns="http://www.w3.org/2000/svg">
  <symbol id="coffee-bean">
    <g class="bean">
      <!-- Контур кофейного зерна -->
      <path class="contour" d="M15 3H18V6H15V3ZM12 6H15V9H12V6ZM9 9H12V12H9V9ZM6 12H9V15H6V12ZM6 15H9V18H6V15ZM6 18H9V21H6V18ZM9 21H12V24H9V21ZM12 24H15V27H12V24ZM15 27H18V30H15V27ZM18 30H21V33H18V30ZM21 27H24V30H21V27ZM24 24H27V27H24V24ZM27 21H30V24H27V21ZM30 18H33V21H30V18ZM30 15H33V18H30V15ZM30 12H33V15H30V12ZM27 9H30V12H27V9ZM24 6H27V9H24V6ZM21 3H24V6H21V3ZM18 3H21V6H18V3Z"/>
      
      <!-- Основное тело зерна -->
      <path class="main-body" d="M15 6H18V9H15V6ZM12 9H15V12H12V9ZM9 12H12V15H9V12ZM9 15H12V18H9V15ZM9 18H12V21H9V18ZM12 21H15V24H12V21ZM15 24H18V27H15V24ZM18 27H21V30H18V27ZM21 24H24V27H21V24ZM24 21H27V24H24V21ZM27 18H30V21H27V18ZM27 15H30V18H27V15ZM27 12H30V15H27V12ZM24 9H27V12H24V9ZM21 6H24V9H21V6ZM18 6H21V9H18V6Z"/>
      
      <!-- Линия посередине зерна (характерная черта кофейного зерна) -->
      <path class="core" d="M18 9H21V12H18V9ZM15 12H18V15H15V12ZM15 15H18V18H15V15ZM18 18H21V21H18V18ZM21 21H24V24H21V21Z"/>
    </g>
    
    <!-- Искры/пар -->
    <path class="sparks" d="M36 13H39V16H36V13ZM27 27H30V30H27V27ZM18 33H21V36H18V33ZM9 27H12V30H9V27ZM24 0H27V3H24V0ZM33 3H36V6H33V3ZM3 3H6V6H3V3ZM12 0H15V3H12V0ZM0 13H3V16H0V13Z"/>
  </symbol>
</svg>

